<mxfile host="app.diagrams.net" modified="2023-04-04T09:54:29.542Z" agent="Mozilla/5.0 (Windows NT 10.0; Win64; x64) AppleWebKit/537.36 (KHTML, like Gecko) Chrome/111.0.0.0 Safari/537.36" version="21.1.1" etag="aAszoeNSMM6lX_QBrEkc" type="github">
  <diagram name="Page-1" id="q-neBviDuGzHm0jvUIlg">
    <mxGraphModel>
      <root>
        <mxCell id="0" />
        <mxCell id="1" parent="0" />
      </root>
    </mxGraphModel>
  </diagram>
</mxfile>
